<svg width="100" height="30" viewBox="0 0 100 30" fill="none" xmlns="http://www.w3.org/2000/svg">
<path d="M0 4.01523V26.3641H3.01641V17.2082C3.01641 14.6793 4.53984 12.6684 7.25156 12.6684C9.52148 12.6684 10.5879 14.1004 10.5879 16.5531V26.3641H13.6043V15.4715C13.6043 12.1047 11.6543 9.88047 8.02852 9.88047C5.25586 9.88047 3.86953 11.1754 3.01641 12.6836V4.01523H0Z" fill="black"/>
<path d="M31.459 26.3641V15.0602C31.459 11.8 29.2195 9.88047 25.2738 9.88047C21.4043 9.88047 18.9973 11.7238 18.0984 14.6336L20.9625 15.4562C21.5414 13.5672 22.9887 12.5617 25.2281 12.5617C27.4066 12.5617 28.4578 13.5062 28.4578 14.8012C28.4578 16.4008 26.8582 16.6445 24.5121 16.9187C21.5719 17.2691 17.8547 17.6348 17.8547 21.7785C17.8547 24.7645 19.759 26.6078 23.141 26.6078C25.2586 26.6078 27.1324 25.8766 28.4883 23.8809V26.3641H31.459ZM20.8559 21.7023C20.8559 19.6914 22.6078 19.5238 24.6645 19.2344C26.0355 19.0363 27.4219 18.823 28.4578 18.427V19.9961C28.4578 22.5402 26.2945 23.9266 23.6895 23.9266C22.0137 23.9266 20.8559 23.3477 20.8559 21.7023Z" fill="black"/>
<path d="M39.7922 10.1852H36.7758V26.3641H39.7922V10.1852ZM36.5625 7.50391H40.0055V4H36.5625V7.50391Z" fill="black"/>
<path d="M59.4141 10.1852H55.2703L48.2625 17.2082V4.01523H45.2461V26.3641H48.2625V21.1691L51.0504 18.5031L55.7273 26.3641H59.2465L53.168 16.3398L59.4141 10.1852Z" fill="black"/>
<path d="M76.0348 26.3641V10.1852H73.0184V19.2801C73.0184 21.809 71.4949 23.8199 68.9356 23.8199C66.818 23.8199 65.7516 22.3879 65.7516 19.9352V10.1852H62.7352V21.0168C62.7352 24.3836 64.6699 26.6078 68.1586 26.6078C70.7789 26.6078 72.1652 25.3129 73.0184 23.8047V26.3641H76.0348Z" fill="black"/>
<path d="M81.333 4V7.50667H94.6663V4H81.333Z" fill="#E40000"/>
<path d="M81.333 17.9465V21.4532H91.9997V17.9465H81.333Z" fill="#E40000"/>
<path d="M84 10.9734V14.4801H100V10.9734H84Z" fill="#E40000"/>
</svg>
