<svg fill="none" height="27" viewBox="0 0 91 27" width="91" xmlns="http://www.w3.org/2000/svg" xmlns:xlink="http://www.w3.org/1999/xlink">
<clipPath id="a"><path d="m.5 0h90v26.6667h-90z"/></clipPath><g clip-path="url(#a)">
<path d="m26.1937 9.08049c.7757-2.39183.3091-7.16351-1.1937-8.925127-.197-.2310812-.5636-.1980696-.7272.05702l-1.8513 2.878007c-.4575.5762-1.2816.70825-1.9028.30611-2.0088-1.30246-4.4085-2.05872-6.9869-2.05872-2.5785 0-4.97819.75626-6.98702 2.05872-.6181.40214-1.44224.26709-1.90278-.30611l-1.85128-2.878007c-.16361-.2550896-.53023-.2851002-.72718-.05702-1.50283 1.764617-1.9694362 6.536297-1.193779 8.925127.257539.79528.327229 1.63561.175739 2.45191-.1515.8102-.302996 1.7886-.302996 2.4698 0 6.9955 5.726526 12.6645 12.786196 12.6645 7.0627 0 12.7862-5.672 12.7862-12.6645 0-.6812-.1515-1.6596-.303-2.4698-.1484-.8163-.0757-1.65663.1818-2.45191zm-12.665 14.75921c-5.45987 0-9.89869-4.3996-9.89869-9.8075 0-.177.00606-.3511.01515-.5252.19694-3.68525 2.45725-6.83335 5.65381-8.33388 1.28163-.60621 2.71783-.94233 4.23283-.94233 1.5149 0 2.9481.33612 4.2327.94533 3.1966 1.50053 5.4569 4.65164 5.6538 8.33388.0091.1741.0152.3512.0152.5252-.003 5.4049-4.4449 9.8045-9.9048 9.8045z" fill="#1eb4d4"/>
<path d="m17.819 17.8075-2.53-4.3455-2.1694-3.62229c-.0515-.08703-.1454-.13805-.2454-.13805h-2.0725c-.103 0-.1969.05402-.2484.14405-.0515.08703-.0485.19509.003.28209l2.0755 3.4542-2.7845 4.2075c-.05757.087-.0606.1981-.01212.2881s.14544.147.25152.147h2.0876c.0969 0 .1878-.048.2393-.129l1.5059-2.3288 1.3513 2.3198c.0515.087.1455.141.2455.141h2.0573c.103 0 .1969-.054.2454-.141.0515-.084.0515-.1921 0-.2791z" fill="#1eb4d4"/>
</g>
</svg>