<svg enable-background="new 0 0 512 512" viewBox="0 0 512 512" xmlns="http://www.w3.org/2000/svg"><path d="m497 0h-61c-8.291 0-15 6.709-15 15v15h-122.763c-6.213-17.422-22.707-30-42.237-30s-36.024 12.578-42.237 30h-122.763v-15c0-8.291-6.709-15-15-15h-61c-8.291 0-15 6.709-15 15v60c0 8.291 6.709 15 15 15h61c8.291 0 15-6.709 15-15v-15.2h61.604c-52.057 32.521-86.382 89.64-90.485 153.615-17.998 5.891-31.119 22.645-31.119 42.585 0 24.814 20.186 45 45 45s45-20.186 45-45c0-19.14-12.061-35.413-28.94-41.907 5.118-71.325 54.886-131.441 124.113-148.593 7.487 14.477 22.434 24.5 39.827 24.5s32.34-10.023 39.827-24.5c69.227 17.151 118.995 77.267 124.113 148.592-16.879 6.495-28.94 22.768-28.94 41.908 0 24.814 20.186 45 45 45s45-20.186 45-45c0-19.94-13.121-36.694-31.119-42.585-4.103-63.975-38.428-120.894-90.485-153.415h61.604v15c0 8.291 6.709 15 15 15h61c8.291 0 15-6.709 15-15v-60c0-8.291-6.709-15-15-15z"/><path d="m358.05 493.395c-7.846-24.009-30.45-42.395-57.05-42.395h-90c-26.6 0-49.204 18.386-57.05 42.395-3.025 9.257 4.85 18.605 14.59 18.605h174.92c9.739 0 17.615-9.348 14.59-18.605z"/><path d="m388.48 307.68-117.48-176.221v142.304c17.422 6.213 30 22.707 30 42.237 0 24.814-20.186 45-45 45s-45-20.186-45-45c0-19.53 12.578-36.024 30-42.237v-142.304l-117.48 176.221c-3.97 5.947-3.179 13.872 1.875 18.926 27.537 27.537 45.139 63.012 51.932 101.065 10.42-4.227 21.753-6.671 33.673-6.671h90c11.92 0 23.253 2.443 33.673 6.669 6.793-38.055 24.395-73.526 51.932-101.063 5.054-5.054 5.845-12.979 1.875-18.926z"/><path d="m256 301c-8.276 0-15 6.724-15 15s6.724 15 15 15 15-6.724 15-15-6.724-15-15-15z"/></svg>